<svg width="19" height="17" xmlns="http://www.w3.org/2000/svg"><path d="M9.5 17a.5.5 0 0 1-.243-.063c-.094-.052-2.326-1.301-4.592-3.347-1.341-1.21-2.411-2.448-3.183-3.68C.498 8.339 0 6.771 0 5.25A5.256 5.256 0 0 1 5.25 0c.98 0 2.021.367 2.931 1.034.532.39.985.86 1.319 1.359a5.522 5.522 0 0 1 1.319-1.359C11.729.367 12.77 0 13.75 0A5.256 5.256 0 0 1 19 5.25c0 1.521-.499 3.089-1.482 4.66-.771 1.232-1.842 2.47-3.182 3.68-2.266 2.046-4.498 3.295-4.592 3.347a.5.5 0 0 1-.243.063H9.5zM5.25 1A4.255 4.255 0 0 0 1 5.25c0 3.04 2.35 5.802 4.321 7.585A27.738 27.738 0 0 0 9.5 15.922a27.738 27.738 0 0 0 4.179-3.087C15.65 11.053 18 8.29 18 5.25A4.255 4.255 0 0 0 13.75 1c-1.703 0-3.357 1.401-3.776 2.658a.5.5 0 0 1-.948 0C8.607 2.401 6.953 1 5.25 1z" fill="#757575" fill-rule="evenodd"/></svg>